<?xml version="1.0" standalone="no"?>
<!DOCTYPE svg PUBLIC "-//W3C//DTD SVG 20010904//EN"
 "http://www.w3.org/TR/2001/REC-SVG-20010904/DTD/svg10.dtd">
<svg version="1.0" xmlns="http://www.w3.org/2000/svg"
 width="200.000000pt" height="200.000000pt" viewBox="0 0 200.000000 200.000000"
 preserveAspectRatio="xMidYMid meet">
<metadata>
Created by potrace 1.11, written by Peter Selinger 2001-2013
</metadata>
<g transform="translate(0.000000,200.000000) scale(0.100000,-0.100000)"
fill="#000000" stroke="none">
<path d="M764 1960 c-134 -19 -293 -109 -375 -212 -50 -63 -113 -193 -128
-266 -13 -61 -14 -208 -2 -269 7 -37 6 -43 -9 -43 -33 0 -45 -29 -45 -109 0
-86 9 -105 107 -234 43 -56 65 -76 85 -79 24 -3 29 -11 49 -77 25 -81 66 -133
156 -194 l47 -32 5 -75 c8 -89 17 -121 62 -216 32 -67 104 -168 104 -146 0 6
-5 14 -11 18 -19 12 -75 108 -105 179 -21 53 -28 87 -29 141 l-1 71 46 -29
c95 -59 248 -60 364 -4 29 14 58 26 64 26 6 0 13 8 15 18 3 9 2 -14 0 -53 -7
-95 -38 -209 -76 -275 -28 -49 -50 -100 -43 -100 6 0 94 178 105 212 21 65 48
237 38 241 -5 1 -3 9 6 17 156 149 161 156 178 258 11 65 14 70 40 76 22 4 35
18 59 63 17 32 47 83 66 113 35 54 36 56 30 134 -6 81 -24 126 -51 126 -12 0
-15 16 -15 80 0 186 -56 332 -176 460 -78 82 -161 134 -263 164 -67 20 -216
28 -297 16z m495 -353 c64 -43 111 -159 111 -278 0 -40 5 -61 16 -70 13 -10
15 -30 12 -101 -3 -78 -1 -88 15 -88 21 0 21 3 -2 -95 -11 -44 -29 -129 -41
-190 -12 -60 -23 -117 -26 -127 -15 -51 -215 -236 -293 -271 -51 -23 -156 -33
-226 -23 -53 8 -223 118 -298 192 -42 41 -48 55 -106 234 -34 104 -64 196 -67
204 -3 8 3 16 15 19 19 5 19 7 6 58 -18 66 -19 103 -3 132 6 12 12 67 13 122
2 120 27 197 80 244 41 36 82 45 162 37 218 -22 302 -18 428 19 74 22 154 15
204 -18z m296 -476 c8 -73 -2 -109 -58 -194 -23 -35 -50 -78 -59 -96 -15 -28
-48 -44 -48 -22 0 13 51 235 55 239 12 12 25 -15 25 -50 0 -40 0 -41 20 -23
25 23 25 41 0 82 -17 29 -18 38 -7 90 6 32 16 61 22 65 18 14 43 -31 50 -91z
m-1288 17 c5 -7 15 -32 22 -56 10 -36 9 -49 -6 -91 -17 -48 -17 -50 1 -70 27
-30 32 -26 28 17 -2 24 1 42 10 50 12 9 21 -9 53 -108 21 -66 36 -122 32 -126
-13 -13 -36 7 -93 81 -95 123 -94 121 -94 211 0 90 19 128 47 92z"/>
<path d="M1050 1294 c-87 -18 -112 -30 -108 -52 5 -26 39 -26 161 3 80 19 130
26 174 23 35 -2 63 -2 63 0 0 1 -19 12 -42 22 -52 23 -151 25 -248 4z"/>
<path d="M520 1271 c-40 -13 -85 -38 -99 -55 -12 -15 -10 -15 22 -1 43 18 129
19 247 4 91 -11 130 -7 130 15 0 31 -31 39 -153 42 -67 2 -133 0 -147 -5z"/>
<path d="M1125 1199 c-46 -11 -115 -62 -115 -86 0 -11 9 -7 33 13 l32 27 3
-24 c2 -13 9 -30 14 -36 8 -10 4 -13 -13 -14 -13 -1 -4 -5 20 -10 62 -12 120
3 154 41 30 33 35 61 13 79 -19 16 -94 21 -141 10z m129 -40 c11 -10 -17 -55
-44 -69 -18 -10 -19 -9 -8 15 8 19 8 31 0 50 -11 24 -11 25 16 19 15 -4 31
-10 36 -15z m-74 -9 c0 -5 -2 -10 -4 -10 -3 0 -8 5 -11 10 -3 6 -1 10 4 10 6
0 11 -4 11 -10z"/>
<path d="M524 1166 c-37 -17 -46 -36 -31 -66 22 -42 62 -64 118 -63 56 1 70
12 79 67 l5 29 33 -27 c21 -19 32 -23 32 -14 0 16 -34 50 -67 67 -37 19 -134
23 -169 7z m44 -41 c-9 -19 -7 -29 6 -51 18 -26 17 -26 -6 -19 -62 19 -78 69
-25 84 17 5 33 10 34 10 2 1 -2 -10 -9 -24z"/>
<path d="M987 791 c-4 -17 -3 -21 5 -13 5 5 8 16 6 23 -3 8 -7 3 -11 -10z"/>
<path d="M1504 1178 c-4 -7 -3 -9 1 -5 5 4 15 -3 22 -15 l12 -23 1 28 c0 28
-23 38 -36 15z"/>
<path d="M1541 1114 c0 -11 3 -14 6 -6 3 7 2 16 -1 19 -3 4 -6 -2 -5 -13z"/>
<path d="M231 1093 c0 -16 3 -22 6 -13 3 8 10 21 16 28 7 8 5 12 -7 12 -11 0
-16 -8 -15 -27z"/>
<path d="M1255 400 c21 -22 41 -40 44 -40 3 0 -13 18 -34 40 -21 22 -41 40
-44 40 -3 0 13 -18 34 -40z"/>
<path d="M567 361 c-15 -22 -43 -56 -63 -77 -20 -20 -28 -31 -16 -25 26 14
125 141 109 141 -2 0 -16 -18 -30 -39z"/>
<path d="M1300 346 c0 -2 8 -10 18 -17 15 -13 16 -12 3 4 -13 16 -21 21 -21
13z"/>
<path d="M1330 306 c0 -2 8 -10 18 -17 15 -13 16 -12 3 4 -13 16 -21 21 -21
13z"/>
<path d="M1370 256 c0 -2 8 -10 18 -17 15 -13 16 -12 3 4 -13 16 -21 21 -21
13z"/>
<path d="M1413 134 c-7 -50 -12 -102 -12 -115 2 -34 18 47 18 93 1 20 5 40 11
43 12 8 202 -29 300 -57 56 -17 83 -31 112 -60 46 -46 55 -48 31 -7 -22 38
-68 62 -165 89 -59 16 -242 50 -270 50 -4 0 -8 12 -10 28 -2 15 -9 -14 -15
-64z"/>
<path d="M420 196 c0 -8 -4 -16 -9 -18 -5 -1 -3 -9 5 -16 12 -11 14 -8 14 18
0 16 -2 30 -5 30 -3 0 -5 -6 -5 -14z"/>
<path d="M246 150 c-131 -30 -246 -78 -246 -101 0 -5 14 -2 31 7 54 28 160 65
254 90 105 27 76 30 -39 4z"/>
<path d="M432 100 c0 -19 2 -27 5 -17 2 9 2 25 0 35 -3 9 -5 1 -5 -18z"/>
<path d="M442 30 c0 -19 2 -27 5 -17 2 9 2 25 0 35 -3 9 -5 1 -5 -18z"/>
</g>
</svg>
